# xmcd
#
# Track frame offsets:
#	183
#	26520
#	49280
#	70440
#	88550
#	118763
#	140978
#
# Disc length: 2156 seconds
#
# Revision: 5
# Processed by: cddbd v1.5.2PL0 Copyright (c) Steve Scherf et al.
# Submitted via: audiograbber 1.83.01
#
DISCID=68086a07
DTITLE=Kool and The Gang - As one
DYEAR=1982
DGENRE=Soul
TTITLE0=Street kids
TTITLE1=Big fun
TTITLE2=As one
TTITLE3=Hi de hi, hi de ho
TTITLE4=Let's go dancing
TTITLE5=Pretty baby
TTITLE6=Think it over
EXTD=
EXTT0=
EXTT1=
EXTT2=
EXTT3=
EXTT4=
EXTT5=
EXTT6=
PLAYORDER=
